<svg width="42" height="43" viewBox="0 0 42 43" fill="none" xmlns="http://www.w3.org/2000/svg">
<g filter="url(#filter0_d_21_310)">
<path fill-rule="evenodd" clip-rule="evenodd" d="M0 5C0 2.23858 2.23858 0 5 0H37C39.7614 0 42 2.23858 42 5V37C42 39.7614 39.7614 42 37 42H5C2.23858 42 0 39.7614 0 37V5Z" fill="#ACB4BE"/>
</g>
<path d="M31.5 26.9329C31.5 27.8141 30.8114 28.5 30.0016 28.5H18.2071L10.7071 21L18.2071 13.5H30.0016C30.8127 13.5 31.5 14.1888 31.5 15.0671V26.9329Z" stroke="black"/>
<path fill-rule="evenodd" clip-rule="evenodd" d="M23.5 20.2929L20.3181 17.111L19.611 17.8181L22.7929 21L19.611 24.182L20.3181 24.8891L23.5 21.7072L26.682 24.8891L27.3891 24.182L24.2072 21L27.3891 17.8181L26.682 17.111L23.5 20.2929Z" fill="black"/>
<defs>
<filter id="filter0_d_21_310" x="0" y="0" width="42" height="43" filterUnits="userSpaceOnUse" color-interpolation-filters="sRGB">
<feFlood flood-opacity="0" result="BackgroundImageFix"/>
<feColorMatrix in="SourceAlpha" type="matrix" values="0 0 0 0 0 0 0 0 0 0 0 0 0 0 0 0 0 0 127 0" result="hardAlpha"/>
<feOffset dy="1"/>
<feColorMatrix type="matrix" values="0 0 0 0 0 0 0 0 0 0 0 0 0 0 0 0 0 0 0.25 0"/>
<feBlend mode="normal" in2="BackgroundImageFix" result="effect1_dropShadow_21_310"/>
<feBlend mode="normal" in="SourceGraphic" in2="effect1_dropShadow_21_310" result="shape"/>
</filter>
</defs>
</svg>
