<svg width="9" height="15" viewBox="0 0 9 15" fill="none" xmlns="http://www.w3.org/2000/svg">
<path d="M8.7555 7.54839L6.93916 6.50018C6.82266 6.43301 6.68189 6.25416 6.64397 6.12512L6.08137 4.21092C6.06739 4.16304 6.04618 4.12029 6.02015 4.08269C5.93836 3.93228 5.78071 3.83008 5.598 3.83008L3.19642 3.93373C3.09117 3.93823 2.9933 3.97808 2.91312 4.04412C2.89705 4.05393 2.88033 4.06341 2.86587 4.07449L1.23402 5.33306C1.04552 5.47849 0.939945 5.77416 0.993938 6.00605L1.64009 8.78607C1.69392 9.01811 1.916 9.19327 2.15624 9.19327C2.17247 9.19327 2.18886 9.19246 2.20509 9.19086L2.4463 9.16675C2.5755 9.15373 2.69216 9.08817 2.76608 8.98661C2.84016 8.88505 2.867 8.75393 2.83984 8.62698L2.38041 6.4809C2.35631 6.36825 2.41737 6.20161 2.50865 6.13139L2.79934 5.90754L2.94879 9.35348C2.94895 9.35717 2.95008 9.36055 2.9504 9.36424L2.28705 10.8356C2.20349 11.0208 1.99362 11.2775 1.82875 11.3962L0.273544 12.516C0.0230206 12.6963 -0.0716287 13.0569 0.0578912 13.3371L0.270651 13.7969C0.355498 13.9802 0.525674 14.0941 0.714972 14.0941C0.82328 14.0941 0.929821 14.0573 1.02302 13.9881L3.07638 12.4591C3.28095 12.3067 3.53324 12.0102 3.65071 11.7838L4.67578 9.80953C4.68397 9.79362 4.68911 9.77659 4.69586 9.76004L4.76737 9.75698L6.44519 14.3827C6.56362 14.7093 6.87954 14.9288 7.23131 14.9288C7.31487 14.9288 7.39746 14.9161 7.47685 14.8909L7.58034 14.8579C7.78538 14.7928 7.95009 14.6519 8.04426 14.461C8.13827 14.2701 8.14968 14.0535 8.0764 13.8513L6.30956 8.98051C6.30136 8.95801 6.29012 8.93744 6.28031 8.91607L6.22359 7.60898L8.17153 8.62087C8.23999 8.65655 8.31712 8.67535 8.39474 8.67535C8.57504 8.67535 8.74007 8.57781 8.8254 8.42081L8.94126 8.2074C9.06724 7.97584 8.98384 7.68016 8.7555 7.54839Z" fill="#111417" fill-opacity="0.15"/>
<path d="M4.13235 3.48279C4.15758 3.48279 4.18313 3.48231 4.20868 3.48118C4.67325 3.4611 5.10231 3.26103 5.41662 2.91827C5.73094 2.57551 5.89292 2.1307 5.87284 1.66614C5.83138 0.706627 5.02951 -0.039961 4.05779 0.00165899C3.59322 0.0217458 3.16417 0.221811 2.84985 0.564573C2.53553 0.907495 2.37355 1.35214 2.39363 1.81671C2.43413 2.75099 3.19791 3.48279 4.13235 3.48279Z" fill="#111417" fill-opacity="0.15"/>
</svg>
