<svg width="20" height="20" viewBox="0 0 20 20" fill="none" xmlns="http://www.w3.org/2000/svg">
<path d="M3.09376 17.2685C3.16078 17.1925 3.30538 17.0472 3.52516 16.8556C3.8983 16.5303 4.34221 16.2037 4.85438 15.8983C6.30121 15.0357 7.99002 14.5135 9.9097 14.5002C11.8421 14.4869 13.5759 15.0349 15.0868 15.958C15.6095 16.2774 16.0666 16.6191 16.4543 16.9598C16.5888 17.0779 16.7045 17.187 16.801 17.2839C16.8567 17.3399 16.8924 17.3779 16.9075 17.3949L17.655 16.7306C17.5568 16.6201 17.3756 16.4381 17.1144 16.2086C16.6851 15.8314 16.1822 15.4554 15.6082 15.1047C13.9472 14.0899 12.0351 13.4856 9.90281 13.5003C7.79474 13.5148 5.93469 14.09 4.34228 15.0394C3.77656 15.3767 3.28465 15.7386 2.86802 16.1018C2.61393 16.3234 2.43865 16.4994 2.34375 16.607L3.09376 17.2685Z" fill="black"/>
<path d="M2.34375 3.95571C2.43865 4.06332 2.61393 4.23938 2.86802 4.4609C3.28465 4.82413 3.77656 5.18606 4.34228 5.52334C5.93469 6.47273 7.79474 7.04796 9.90281 7.06248C12.0351 7.07716 13.9472 6.47281 15.6082 5.45803C16.1822 5.10736 16.6851 4.73132 17.1144 4.35415C17.3756 4.12463 17.5568 3.94265 17.655 3.83214L16.9075 3.16785C16.8924 3.18485 16.8567 3.22284 16.801 3.27883C16.7045 3.37579 16.5888 3.48482 16.4543 3.60294C16.0666 3.94361 15.6095 4.28539 15.0868 4.60469C13.5759 5.52782 11.8421 6.07581 9.9097 6.0625C7.99002 6.04928 6.30121 5.52701 4.85438 4.66441C4.34221 4.35906 3.8983 4.03245 3.52516 3.70714C3.30538 3.51553 3.16078 3.37028 3.09376 3.29428L2.34375 3.95571Z" fill="black"/>
<path fill-rule="evenodd" clip-rule="evenodd" d="M9.5 1H10.5V19.5H9.5V1Z" fill="black"/>
<path fill-rule="evenodd" clip-rule="evenodd" d="M0 9.5H20V10.5H0V9.5Z" fill="black"/>
<path fill-rule="evenodd" clip-rule="evenodd" d="M4.5 10C4.5 15.5228 6.96243 20 10.2619 20C13.0376 20 15.5 15.5228 15.5 10C15.5 4.47715 13.0376 0 10.2619 0C6.96243 0 4.5 4.47715 4.5 10ZM14.5 10C14.5 14.9675 12.3551 19 10.2619 19C7.70696 19 5.5 15.1151 5.5 10C5.5 4.88487 7.70696 1 10.2619 1C12.3551 1 14.5 5.03251 14.5 10Z" fill="black"/>
<path fill-rule="evenodd" clip-rule="evenodd" d="M0 10C0 15.5228 4.47715 20 10 20C15.5228 20 20 15.5228 20 10C20 4.47715 15.5228 0 10 0C4.47715 0 0 4.47715 0 10ZM19 10C19 14.9706 14.9706 19 10 19C5.02944 19 1 14.9706 1 10C1 5.02944 5.02944 1 10 1C14.9706 1 19 5.02944 19 10Z" fill="black"/>
</svg>
