<svg width="46" height="46" viewBox="0 0 46 46" fill="none" xmlns="http://www.w3.org/2000/svg">
<g clip-path="url(#clip0_2_130)">
<path d="M44.5285 26.9879C45.0999 26.991 45.627 26.6804 45.9008 26.1789C46.1801 25.6774 46.1478 25.0604 45.8179 24.5905L43.7484 21.5709C42.4292 19.6867 40.0971 18.7928 37.8563 19.3122L29.9686 21.2596C29.8644 20.0776 28.8761 19.1704 27.6895 19.1665V18.4001C27.6867 17.4286 27.0725 16.5639 26.1562 16.2414V6.13324H26.923C28.616 6.13148 29.9879 4.75961 29.9897 3.06662V0.76683C29.9897 0.343231 29.6464 0 29.2228 0H16.9564C16.5328 0 16.1895 0.343231 16.1895 0.76683V3.06662C16.1913 4.75961 17.5635 6.13148 19.2561 6.13324H20.023V16.2414C19.1066 16.5639 18.4925 17.4286 18.4897 18.4001V19.1665C17.2743 19.1701 16.272 20.1194 16.2032 21.3326L1.71872 20.7002C1.12035 20.6686 0.557773 20.9862 0.275958 21.5151C0.000109896 22.0177 0.0330994 22.6336 0.361591 23.1039L2.43221 26.1245C3.48752 27.6326 5.21631 28.5268 7.05705 28.5163C7.48732 28.5166 7.91618 28.4682 8.33592 28.3724L16.1895 26.2958V26.8335C16.1913 27.3785 16.4836 27.8817 16.9564 28.1534V29.9001C16.9581 31.5931 18.33 32.9649 20.023 32.9667H26.1562C27.8492 32.9649 29.2211 31.5931 29.2228 29.9001V28.1534C29.6956 27.8817 29.9879 27.3785 29.9897 26.8335V26.2284L44.4513 26.9861C44.477 26.9872 44.5033 26.9879 44.5285 26.9879ZM38.2104 20.8037C39.8342 20.4254 41.5248 21.0719 42.4825 22.4367L44.5278 25.4546L28.3995 24.6102L29.6721 22.9123L38.2104 20.8037ZM17.7228 3.06662V1.53331H28.4564V3.06662C28.4553 3.91312 27.7695 4.59888 26.923 4.59993H19.2561C18.41 4.59888 17.7239 3.91312 17.7228 3.06662ZM24.6229 6.13324V16.0999H21.5563V6.13324H24.6229ZM20.023 18.4001C20.0233 17.9768 20.3662 17.6336 20.7895 17.6332H25.3897C25.813 17.6336 26.1559 17.9768 26.1562 18.4001V19.1665H20.023V18.4001ZM7.96883 26.8829C6.34673 27.2613 4.65724 26.6183 3.69704 25.2573L1.65801 22.2325L17.7709 22.9361L16.5026 24.627L7.96883 26.8829ZM27.6895 29.9001C27.6888 30.7466 27.0027 31.4323 26.1562 31.4334H20.023C19.1765 31.4323 18.4907 30.7466 18.4897 29.9001V28.3668H27.6895V29.9001ZM28.4564 26.8335H17.7228V25.5553L19.8696 22.6933C20.0402 22.4659 20.0711 22.1626 19.9496 21.9057C19.8278 21.6485 19.5741 21.48 19.2902 21.4674L17.7365 21.3997C17.7685 21.0062 18.0952 20.7027 18.4897 20.6999H27.6895C28.1128 20.7002 28.456 21.0434 28.4564 21.4667V21.978L26.3096 24.84C26.1394 25.0664 26.1081 25.3682 26.2278 25.6248C26.3478 25.8813 26.5995 26.0508 26.8823 26.0656L28.4564 26.148V26.8335Z" fill="black"/>
<path d="M22.3231 38.3335V45.2332C22.3231 45.6568 22.6664 46 23.0896 46C23.5132 46 23.8564 45.6568 23.8564 45.2332V38.3335C23.8564 37.9099 23.5132 37.5666 23.0896 37.5666C22.6664 37.5666 22.3231 37.9099 22.3231 38.3335Z" fill="black"/>
<path d="M17.905 35.5663L12.6288 40.0128C12.3052 40.2859 12.2638 40.7695 12.5369 41.0931C12.8096 41.417 13.2935 41.4581 13.6171 41.1854L18.8933 36.7388C19.1028 36.5623 19.2022 36.2871 19.1537 36.0176C19.1056 35.7481 18.9172 35.5245 18.6596 35.4315C18.402 35.3381 18.1146 35.3897 17.905 35.5663Z" fill="black"/>
<path d="M27.1035 35.6584C26.8308 35.9823 26.8722 36.4655 27.1955 36.7389L32.4717 41.1855C32.7956 41.4585 33.2792 41.4171 33.5523 41.0932C33.8253 40.7693 33.7839 40.2853 33.46 40.0126L28.1837 35.5661C28.0283 35.4348 27.8272 35.3709 27.6247 35.3885C27.4218 35.4057 27.2344 35.5029 27.1035 35.6584Z" fill="black"/>
</g>
<defs>
<clipPath id="clip0_2_130">
<rect width="46" height="46" fill="white"/>
</clipPath>
</defs>
</svg>
