<svg width="72" height="11" viewBox="0 0 72 11" fill="none" xmlns="http://www.w3.org/2000/svg">
<path d="M4.93362 0.550006C5.30433 -0.183308 6.35151 -0.183309 6.72223 0.550004L7.75979 2.60241C7.90746 2.89452 8.18848 3.0961 8.51251 3.14234L10.7943 3.46799C11.6233 3.58631 11.9501 4.60903 11.3433 5.18616L9.72457 6.72557C9.48138 6.95685 9.37012 7.29452 9.42818 7.62507L9.81414 9.82233C9.95738 10.6378 9.10596 11.2653 8.36942 10.8871L6.28566 9.81714C5.99833 9.6696 5.65751 9.6696 5.37018 9.81714L3.28642 10.8871C2.54988 11.2653 1.69847 10.6378 1.84171 9.82233L2.22767 7.62507C2.28573 7.29452 2.17446 6.95685 1.93127 6.72557L0.312594 5.18616C-0.29425 4.60903 0.0325359 3.58631 0.861592 3.46799L3.14334 3.14234C3.46737 3.0961 3.74839 2.89452 3.89606 2.60241L4.93362 0.550006Z" fill="#45BFE4"/>
<path d="M19.9649 0.550006C20.3356 -0.183308 21.3828 -0.183309 21.7535 0.550004L22.7911 2.60241C22.9387 2.89452 23.2198 3.0961 23.5438 3.14234L25.8255 3.46799C26.6546 3.58631 26.9814 4.60903 26.3745 5.18616L24.7559 6.72557C24.5127 6.95685 24.4014 7.29452 24.4595 7.62507L24.8454 9.82233C24.9887 10.6378 24.1372 11.2653 23.4007 10.8871L21.3169 9.81714C21.0296 9.6696 20.6888 9.6696 20.4015 9.81714L18.3177 10.8871C17.5812 11.2653 16.7297 10.6378 16.873 9.82233L17.2589 7.62507C17.317 7.29452 17.2057 6.95685 16.9625 6.72557L15.3439 5.18616C14.737 4.60903 15.0638 3.58631 15.8929 3.46799L18.1746 3.14234C18.4986 3.0961 18.7797 2.89452 18.9273 2.60241L19.9649 0.550006Z" fill="#45BFE4"/>
<path d="M34.9962 0.550006C35.3669 -0.183308 36.4141 -0.183309 36.7848 0.550004L37.8223 2.60241C37.97 2.89452 38.251 3.0961 38.5751 3.14234L40.8568 3.46799C41.6859 3.58631 42.0126 4.60903 41.4058 5.18616L39.7871 6.72557C39.5439 6.95685 39.4327 7.29452 39.4907 7.62507L39.8767 9.82233C40.0199 10.6378 39.1685 11.2653 38.432 10.8871L36.3482 9.81714C36.0609 9.6696 35.7201 9.6696 35.4327 9.81714L33.349 10.8871C32.6124 11.2653 31.761 10.6378 31.9043 9.82233L32.2902 7.62507C32.3483 7.29452 32.237 6.95685 31.9938 6.72557L30.3751 5.18616C29.7683 4.60903 30.0951 3.58631 30.9241 3.46799L33.2059 3.14234C33.5299 3.0961 33.8109 2.89452 33.9586 2.60241L34.9962 0.550006Z" fill="#45BFE4"/>
<path d="M50.0274 0.550006C50.3982 -0.183308 51.4453 -0.183309 51.8161 0.550004L52.8536 2.60241C53.0013 2.89452 53.2823 3.0961 53.6063 3.14234L55.8881 3.46799C56.7171 3.58631 57.0439 4.60903 56.4371 5.18616L54.8184 6.72557C54.5752 6.95685 54.4639 7.29452 54.522 7.62507L54.908 9.82233C55.0512 10.6378 54.1998 11.2653 53.4633 10.8871L51.3795 9.81714C51.0922 9.6696 50.7513 9.6696 50.464 9.81714L48.3802 10.8871C47.6437 11.2653 46.7923 10.6378 46.9355 9.82233L47.3215 7.62507C47.3796 7.29452 47.2683 6.95685 47.0251 6.72557L45.4064 5.18616C44.7996 4.60903 45.1264 3.58631 45.9554 3.46799L48.2372 3.14234C48.5612 3.0961 48.8422 2.89452 48.9899 2.60241L50.0274 0.550006Z" fill="#45BFE4"/>
<path d="M65.0587 0.550006C65.4294 -0.183308 66.4766 -0.183309 66.8473 0.550004L67.8849 2.60241C68.0326 2.89452 68.3136 3.0961 68.6376 3.14234L70.9194 3.46799C71.7484 3.58631 72.0752 4.60903 71.4684 5.18616L69.8497 6.72557C69.6065 6.95685 69.4952 7.29452 69.5533 7.62507L69.9392 9.82233C70.0825 10.6378 69.2311 11.2653 68.4945 10.8871L66.4108 9.81714C66.1234 9.6696 65.7826 9.6696 65.4953 9.81714L63.4115 10.8871C62.675 11.2653 61.8236 10.6378 61.9668 9.82233L62.3528 7.62507C62.4108 7.29452 62.2996 6.95685 62.0564 6.72557L60.4377 5.18616C59.8309 4.60903 60.1576 3.58631 60.9867 3.46799L63.2684 3.14234C63.5925 3.0961 63.8735 2.89452 64.0212 2.60241L65.0587 0.550006Z" fill="#111417" fill-opacity="0.15"/>
</svg>
